# xmcd
#
# Track frame offsets:
#  150
#  13495
#  25980
#  38812
#  49080
#  61172
#  74612
#  91404
#  110617
#  121730
#  143932
#  164605
#  176434
#  189790
#  204070
#  217780
#
# Disc length: 3097 seconds
#
# Revision: 0
# Processed by: cddbd v1.5.1PL2 Copyright (c) Steve Scherf et al.
# Submitted via: Collectorz.com_Music_Collector 6.11
#
DISCID=db0c1710
DTITLE=Various Artist - Blues Bumpers Vol. 2
DYEAR=1997
DGENRE=
TTITLE0=Elmore James - Standing At The Crossroads
TTITLE1=Magic Sam - Roll Your Moneymaker
TTITLE2=Billy Boy Arnold - I Was Fooled
TTITLE3=Lightnin' Hopkins - Stool Pigeon Blues
TTITLE4=Frank Frost - Everything's Alright
TTITLE5=Eddie Taylor - Big Town Playboy
TTITLE6=John Lee Hooker - Seven Days And Seven Nights
TTITLE7=Champion Jack Dupree - You Rascal You
TTITLE8=Guitar Junior - Pick Me Up On Your Way Down
TTITLE9=Walter 'Wolfman' Washington - It's Rainin' In My Life
TTITLE10=Lightnin' Hopkins - Morning Blues
TTITLE11=Robert Johnson - Come On In My Kitchen
TTITLE12=Howlin' Wolf - My Baby Walked Of
TTITLE13=Sleepy John Ester - Registration Day Blues
TTITLE14=James Cotton - Cotton Crop Blues
TTITLE15=Fenton Robinson - Moanin' For My Baby
EXTD=
EXTT0=
EXTT1=
EXTT2=
EXTT3=
EXTT4=
EXTT5=
EXTT6=
EXTT7=
EXTT8=
EXTT9=
EXTT10=
EXTT11=
EXTT12=
EXTT13=
EXTT14=
EXTT15=
PLAYORDER=
